<?xml version="1.0" encoding="UTF-8"?>
<svg id="Layer_2" data-name="Layer 2" xmlns="http://www.w3.org/2000/svg" viewBox="0 0 350.98 280.76">
  <defs>
    <style>
      .cls-1 {
        fill: #fff;
      }
    </style>
  </defs>
  <g id="Layer_1-2" data-name="Layer 1">
    <path id="logo-white" class="cls-1" d="M175.5,0C78.73,0,0,69.84,0,155.68v125.08h350.98v-125.08C350.98,69.84,272.26,0,175.5,0ZM200.69,187.28h-49.77v-41.6h48.8l.97.97v40.64ZM340.34,199.47l-20.02-1.5h-.1s-.1,0-.1,0c-23.17.53-46.62,3.06-69.29,5.5-30.22,3.25-61.48,6.62-92.33,5.28-18.2-.8-36.97-2.96-55.12-5.05-16.84-1.94-34.26-3.95-51.27-4.88-6.21-.34-12.15-.51-17.87-.51-8.29,0-16.11.36-23.61,1.08v-5.63l329.7-.81v6.54ZM10.64,205.26c31.37-2.29,63.17,1.22,93.93,4.63,15.43,1.71,31.4,3.47,47.12,4.49,29.62,1.91,57.1-.93,86.19-3.94,8.85-.91,18-1.86,27.16-2.65,2.64-.23,5.29-.47,7.96-.71,22.3-2,45.34-4.06,67.35-1.25v17.33c-.83-.19-1.76-.4-2.76-.43-30.02-1.01-60.17,2.07-89.34,5.05-30.16,3.08-61.34,6.26-92.2,4.88-17.07-.76-34.43-2.79-51.22-4.75-21.54-2.51-43.8-5.11-65.88-5.11-.3,0-.61,0-.91,0-8.19-.92-16.87-.24-25.27.41-.71.05-1.41.11-2.11.16v-18.11ZM175.5,10.64c90.9,0,164.84,65.07,164.84,145.04v31.6h-102.29v-59.62l-62.58-61.25-62.55,61.25v59.62H10.64v-31.6C10.64,75.7,84.59,10.64,175.5,10.64ZM10.64,270.12v-41.05c1.31-.08,2.61-.15,3.92-.22h.07c15.11-.76,30.13-.62,44.64.39,15.44,1.08,30.41,2.58,44.89,4.04,26.29,2.65,51.48,5.19,78.24,5.19,9.16,0,18.51-.3,28.15-.99,13.5-.97,27.22-2.49,40.48-3.96,29.27-3.24,59.53-6.58,89.32-4.24v40.84H10.64Z"/>
  </g>
</svg>